<svg width="8" height="844" viewBox="0 0 8 844" fill="none" xmlns="http://www.w3.org/2000/svg">
<rect width="8" height="1" transform="matrix(-1 0 0 1 8 4)" fill="#CF2626" fill-opacity="0.9"/>
<rect width="8" height="1" transform="matrix(-1 0 0 1 8 13)" fill="#CF2626" fill-opacity="0.9"/>
<rect width="8" height="1" transform="matrix(-1 0 0 1 8 22)" fill="#CF2626" fill-opacity="0.9"/>
<rect width="8" height="1" transform="matrix(-1 0 0 1 8 31)" fill="#CF2626" fill-opacity="0.9"/>
<rect width="8" height="1" transform="matrix(-1 0 0 1 8 40)" fill="#CF2626" fill-opacity="0.9"/>
<rect width="8" height="1" transform="matrix(-1 0 0 1 8 49)" fill="#CF2626" fill-opacity="0.9"/>
<rect width="8" height="1" transform="matrix(-1 0 0 1 8 58)" fill="#CF2626" fill-opacity="0.9"/>
<rect width="8" height="1" transform="matrix(-1 0 0 1 8 67)" fill="#CF2626" fill-opacity="0.9"/>
<rect width="8" height="1" transform="matrix(-1 0 0 1 8 76)" fill="#CF2626" fill-opacity="0.9"/>
<rect width="8" height="1" transform="matrix(-1 0 0 1 8 85)" fill="#CF2626" fill-opacity="0.9"/>
<rect width="8" height="1" transform="matrix(-1 0 0 1 8 94)" fill="#CF2626" fill-opacity="0.9"/>
<rect width="8" height="1" transform="matrix(-1 0 0 1 8 103)" fill="#CF2626" fill-opacity="0.9"/>
<rect width="8" height="1" transform="matrix(-1 0 0 1 8 112)" fill="#CF2626" fill-opacity="0.9"/>
<rect width="8" height="1" transform="matrix(-1 0 0 1 8 121)" fill="#CF2626" fill-opacity="0.9"/>
<rect width="8" height="1" transform="matrix(-1 0 0 1 8 130)" fill="#CF2626" fill-opacity="0.9"/>
<rect width="8" height="1" transform="matrix(-1 0 0 1 8 139)" fill="#CF2626" fill-opacity="0.9"/>
<rect width="8" height="1" transform="matrix(-1 0 0 1 8 148)" fill="#CF2626" fill-opacity="0.9"/>
<rect width="8" height="1" transform="matrix(-1 0 0 1 8 157)" fill="#CF2626" fill-opacity="0.9"/>
<rect width="8" height="1" transform="matrix(-1 0 0 1 8 166)" fill="#CF2626" fill-opacity="0.9"/>
<rect width="8" height="1" transform="matrix(-1 0 0 1 8 175)" fill="#CF2626" fill-opacity="0.9"/>
<rect width="8" height="1" transform="matrix(-1 0 0 1 8 184)" fill="#CF2626" fill-opacity="0.9"/>
<rect width="8" height="1" transform="matrix(-1 0 0 1 8 193)" fill="#CF2626" fill-opacity="0.9"/>
<rect width="8" height="1" transform="matrix(-1 0 0 1 8 202)" fill="#CF2626" fill-opacity="0.9"/>
<rect width="8" height="1" transform="matrix(-1 0 0 1 8 211)" fill="#CF2626" fill-opacity="0.9"/>
<rect width="8" height="1" transform="matrix(-1 0 0 1 8 220)" fill="#CF2626" fill-opacity="0.9"/>
<rect width="8" height="1" transform="matrix(-1 0 0 1 8 229)" fill="#CF2626" fill-opacity="0.9"/>
<rect width="8" height="1" transform="matrix(-1 0 0 1 8 238)" fill="#CF2626" fill-opacity="0.9"/>
<rect width="8" height="1" transform="matrix(-1 0 0 1 8 247)" fill="#CF2626" fill-opacity="0.9"/>
<rect width="8" height="1" transform="matrix(-1 0 0 1 8 256)" fill="#CF2626" fill-opacity="0.9"/>
<rect width="8" height="1" transform="matrix(-1 0 0 1 8 265)" fill="#CF2626" fill-opacity="0.9"/>
<rect width="8" height="1" transform="matrix(-1 0 0 1 8 274)" fill="#CF2626" fill-opacity="0.9"/>
<rect width="8" height="1" transform="matrix(-1 0 0 1 8 283)" fill="#CF2626" fill-opacity="0.9"/>
<rect width="8" height="1" transform="matrix(-1 0 0 1 8 292)" fill="#CF2626" fill-opacity="0.9"/>
<rect width="8" height="1" transform="matrix(-1 0 0 1 8 301)" fill="#CF2626" fill-opacity="0.9"/>
<rect width="8" height="1" transform="matrix(-1 0 0 1 8 310)" fill="#CF2626" fill-opacity="0.9"/>
<rect width="8" height="1" transform="matrix(-1 0 0 1 8 319)" fill="#CF2626" fill-opacity="0.9"/>
<rect width="8" height="1" transform="matrix(-1 0 0 1 8 328)" fill="#CF2626" fill-opacity="0.9"/>
<rect width="8" height="1" transform="matrix(-1 0 0 1 8 337)" fill="#CF2626" fill-opacity="0.9"/>
<rect width="8" height="1" transform="matrix(-1 0 0 1 8 346)" fill="#CF2626" fill-opacity="0.9"/>
<rect width="8" height="1" transform="matrix(-1 0 0 1 8 355)" fill="#CF2626" fill-opacity="0.9"/>
<rect width="8" height="1" transform="matrix(-1 0 0 1 8 364)" fill="#CF2626" fill-opacity="0.9"/>
<rect width="8" height="1" transform="matrix(-1 0 0 1 8 373)" fill="#CF2626" fill-opacity="0.9"/>
<rect width="8" height="1" transform="matrix(-1 0 0 1 8 382)" fill="#CF2626" fill-opacity="0.9"/>
<rect width="8" height="1" transform="matrix(-1 0 0 1 8 391)" fill="#CF2626" fill-opacity="0.9"/>
<rect width="8" height="1" transform="matrix(-1 0 0 1 8 400)" fill="#CF2626" fill-opacity="0.9"/>
<rect width="8" height="1" transform="matrix(-1 0 0 1 8 409)" fill="#CF2626" fill-opacity="0.9"/>
<rect width="8" height="1" transform="matrix(-1 0 0 1 8 418)" fill="#CF2626" fill-opacity="0.9"/>
<rect width="8" height="1" transform="matrix(-1 0 0 1 8 427)" fill="#CF2626" fill-opacity="0.9"/>
<rect width="8" height="1" transform="matrix(-1 0 0 1 8 436)" fill="#CF2626" fill-opacity="0.9"/>
<rect width="8" height="1" transform="matrix(-1 0 0 1 8 445)" fill="#CF2626" fill-opacity="0.9"/>
<rect width="8" height="1" transform="matrix(-1 0 0 1 8 454)" fill="#CF2626" fill-opacity="0.9"/>
<rect width="8" height="1" transform="matrix(-1 0 0 1 8 463)" fill="#CF2626" fill-opacity="0.9"/>
<rect width="8" height="1" transform="matrix(-1 0 0 1 8 472)" fill="#CF2626" fill-opacity="0.9"/>
<rect width="8" height="1" transform="matrix(-1 0 0 1 8 481)" fill="#CF2626" fill-opacity="0.9"/>
<rect width="8" height="1" transform="matrix(-1 0 0 1 8 490)" fill="#CF2626" fill-opacity="0.9"/>
<rect width="8" height="1" transform="matrix(-1 0 0 1 8 499)" fill="#CF2626" fill-opacity="0.9"/>
<rect width="8" height="1" transform="matrix(-1 0 0 1 8 508)" fill="#CF2626" fill-opacity="0.9"/>
<rect width="8" height="1" transform="matrix(-1 0 0 1 8 517)" fill="#CF2626" fill-opacity="0.9"/>
<rect width="8" height="1" transform="matrix(-1 0 0 1 8 526)" fill="#CF2626" fill-opacity="0.9"/>
<rect width="8" height="1" transform="matrix(-1 0 0 1 8 535)" fill="#CF2626" fill-opacity="0.9"/>
<rect width="8" height="1" transform="matrix(-1 0 0 1 8 544)" fill="#CF2626" fill-opacity="0.9"/>
<rect width="8" height="1" transform="matrix(-1 0 0 1 8 553)" fill="#CF2626" fill-opacity="0.9"/>
<rect width="8" height="1" transform="matrix(-1 0 0 1 8 562)" fill="#CF2626" fill-opacity="0.9"/>
<rect width="8" height="1" transform="matrix(-1 0 0 1 8 571)" fill="#CF2626" fill-opacity="0.9"/>
<rect width="8" height="1" transform="matrix(-1 0 0 1 8 580)" fill="#CF2626" fill-opacity="0.9"/>
<rect width="8" height="1" transform="matrix(-1 0 0 1 8 589)" fill="#CF2626" fill-opacity="0.9"/>
<rect width="8" height="1" transform="matrix(-1 0 0 1 8 598)" fill="#CF2626" fill-opacity="0.9"/>
<rect width="8" height="1" transform="matrix(-1 0 0 1 8 607)" fill="#CF2626" fill-opacity="0.9"/>
<rect width="8" height="1" transform="matrix(-1 0 0 1 8 616)" fill="#CF2626" fill-opacity="0.9"/>
<rect width="8" height="1" transform="matrix(-1 0 0 1 8 625)" fill="#CF2626" fill-opacity="0.9"/>
<rect width="8" height="1" transform="matrix(-1 0 0 1 8 634)" fill="#CF2626" fill-opacity="0.9"/>
<rect width="8" height="1" transform="matrix(-1 0 0 1 8 643)" fill="#CF2626" fill-opacity="0.9"/>
<rect width="8" height="1" transform="matrix(-1 0 0 1 8 652)" fill="#CF2626" fill-opacity="0.9"/>
<rect width="8" height="1" transform="matrix(-1 0 0 1 8 661)" fill="#CF2626" fill-opacity="0.9"/>
<rect width="8" height="1" transform="matrix(-1 0 0 1 8 670)" fill="#CF2626" fill-opacity="0.9"/>
<rect width="8" height="1" transform="matrix(-1 0 0 1 8 679)" fill="#CF2626" fill-opacity="0.9"/>
<rect width="8" height="1" transform="matrix(-1 0 0 1 8 688)" fill="#CF2626" fill-opacity="0.9"/>
<rect width="8" height="1" transform="matrix(-1 0 0 1 8 697)" fill="#CF2626" fill-opacity="0.9"/>
<rect width="8" height="1" transform="matrix(-1 0 0 1 8 706)" fill="#CF2626" fill-opacity="0.9"/>
<rect width="8" height="1" transform="matrix(-1 0 0 1 8 715)" fill="#CF2626" fill-opacity="0.9"/>
<rect width="8" height="1" transform="matrix(-1 0 0 1 8 724)" fill="#CF2626" fill-opacity="0.9"/>
<rect width="8" height="1" transform="matrix(-1 0 0 1 8 733)" fill="#CF2626" fill-opacity="0.9"/>
<rect width="8" height="1" transform="matrix(-1 0 0 1 8 742)" fill="#CF2626" fill-opacity="0.9"/>
<rect width="8" height="1" transform="matrix(-1 0 0 1 8 751)" fill="#CF2626" fill-opacity="0.9"/>
<rect width="8" height="1" transform="matrix(-1 0 0 1 8 760)" fill="#CF2626" fill-opacity="0.9"/>
<rect width="8" height="1" transform="matrix(-1 0 0 1 8 769)" fill="#CF2626" fill-opacity="0.9"/>
<rect width="8" height="1" transform="matrix(-1 0 0 1 8 778)" fill="#CF2626" fill-opacity="0.9"/>
<rect width="8" height="1" transform="matrix(-1 0 0 1 8 787)" fill="#CF2626" fill-opacity="0.9"/>
<rect width="8" height="1" transform="matrix(-1 0 0 1 8 796)" fill="#CF2626" fill-opacity="0.9"/>
<rect width="8" height="1" transform="matrix(-1 0 0 1 8 805)" fill="#CF2626" fill-opacity="0.9"/>
<rect width="8" height="1" transform="matrix(-1 0 0 1 8 814)" fill="#CF2626" fill-opacity="0.9"/>
<rect width="8" height="1" transform="matrix(-1 0 0 1 8 823)" fill="#CF2626" fill-opacity="0.9"/>
<rect width="8" height="1" transform="matrix(-1 0 0 1 8 832)" fill="#CF2626" fill-opacity="0.9"/>
<rect width="8" height="1" transform="matrix(-1 0 0 1 8 841)" fill="#CF2626" fill-opacity="0.9"/>
</svg>
